<svg width="477" height="126" viewBox="0 0 477 126" fill="none" xmlns="http://www.w3.org/2000/svg">
<rect y="7.61719" width="180" height="109" rx="16" fill="#B70909"/>
<rect y="7.61719" width="180" height="109" rx="16" fill="url(#paint0_linear)"/>
<path d="M68.9075 21.3086L132.833 58.2161L68.9075 95.1236L68.9075 21.3086Z" fill="white"/>
<path d="M255.913 11.3C256.287 11.3 256.61 11.436 256.882 11.708C257.154 11.98 257.29 12.303 257.29 12.677V20.429C257.29 20.803 257.154 21.126 256.882 21.398C256.61 21.67 256.287 21.806 255.913 21.806H235.87V25.07H252.598C252.972 25.07 253.295 25.206 253.567 25.478C253.839 25.75 253.975 26.073 253.975 26.447V34.148C253.975 34.522 253.839 34.845 253.567 35.117C253.295 35.389 252.972 35.525 252.598 35.525H235.87V45.623C235.87 45.997 235.734 46.32 235.462 46.592C235.19 46.864 234.867 47 234.493 47H223.477C223.103 47 222.78 46.864 222.508 46.592C222.236 46.32 222.1 45.997 222.1 45.623V12.677C222.1 12.303 222.236 11.98 222.508 11.708C222.78 11.436 223.103 11.3 223.477 11.3H255.913ZM282.005 47.51C276.293 47.51 271.754 46.269 268.388 43.787C265.056 41.305 263.39 37.429 263.39 32.159V12.677C263.39 12.303 263.526 11.98 263.798 11.708C264.07 11.436 264.393 11.3 264.767 11.3H275.426C275.8 11.3 276.123 11.436 276.395 11.708C276.667 11.98 276.803 12.303 276.803 12.677V32.975C276.803 34.369 277.262 35.44 278.18 36.188C279.132 36.936 280.407 37.31 282.005 37.31C283.603 37.31 284.861 36.936 285.779 36.188C286.731 35.44 287.207 34.369 287.207 32.975V12.677C287.207 12.303 287.343 11.98 287.615 11.708C287.887 11.436 288.21 11.3 288.584 11.3H299.243C299.617 11.3 299.94 11.436 300.212 11.708C300.484 11.98 300.62 12.303 300.62 12.677V32.159C300.62 37.429 298.937 41.305 295.571 43.787C292.239 46.269 287.717 47.51 282.005 47.51ZM341.298 11.3C341.672 11.3 341.995 11.436 342.267 11.708C342.539 11.98 342.675 12.303 342.675 12.677V45.623C342.675 45.997 342.539 46.32 342.267 46.592C341.995 46.864 341.672 47 341.298 47H333.087C332.271 47 331.591 46.643 331.047 45.929L319.929 31.751V45.623C319.929 45.997 319.793 46.32 319.521 46.592C319.249 46.864 318.926 47 318.552 47H309.066C308.692 47 308.369 46.864 308.097 46.592C307.825 46.32 307.689 45.997 307.689 45.623V12.677C307.689 12.303 307.825 11.98 308.097 11.708C308.369 11.436 308.692 11.3 309.066 11.3H317.328C318.144 11.3 318.807 11.64 319.317 12.32L330.435 27.671V12.677C330.435 12.303 330.571 11.98 330.843 11.708C331.115 11.436 331.438 11.3 331.812 11.3H341.298ZM384.628 11.3C385.002 11.3 385.325 11.436 385.597 11.708C385.869 11.98 386.005 12.303 386.005 12.677V45.623C386.005 45.997 385.869 46.32 385.597 46.592C385.325 46.864 385.002 47 384.628 47H376.417C375.601 47 374.921 46.643 374.377 45.929L363.259 31.751V45.623C363.259 45.997 363.123 46.32 362.851 46.592C362.579 46.864 362.256 47 361.882 47H352.396C352.022 47 351.699 46.864 351.427 46.592C351.155 46.32 351.019 45.997 351.019 45.623V12.677C351.019 12.303 351.155 11.98 351.427 11.708C351.699 11.436 352.022 11.3 352.396 11.3H360.658C361.474 11.3 362.137 11.64 362.647 12.32L373.765 27.671V12.677C373.765 12.303 373.901 11.98 374.173 11.708C374.445 11.436 374.768 11.3 375.142 11.3H384.628ZM430.661 11.3C430.967 11.3 431.222 11.419 431.426 11.657C431.664 11.861 431.783 12.099 431.783 12.371C431.783 12.575 431.732 12.779 431.63 12.983L418.778 34.25V45.623C418.778 45.997 418.642 46.32 418.37 46.592C418.098 46.864 417.775 47 417.401 47H406.538C406.164 47 405.841 46.864 405.569 46.592C405.297 46.32 405.161 45.997 405.161 45.623V34.25L392.36 12.983C392.258 12.779 392.207 12.592 392.207 12.422C392.207 12.116 392.309 11.861 392.513 11.657C392.751 11.419 393.023 11.3 393.329 11.3H404.09C405.042 11.3 405.739 11.691 406.181 12.473L411.944 22.571L417.86 12.575C418.37 11.725 419.084 11.3 420.002 11.3H430.661ZM245.356 75.677C245.866 74.759 246.597 74.3 247.549 74.3H256.882C257.256 74.3 257.579 74.436 257.851 74.708C258.123 74.98 258.259 75.303 258.259 75.677V108.623C258.259 108.997 258.123 109.32 257.851 109.592C257.579 109.864 257.256 110 256.882 110H247.651C247.277 110 246.954 109.864 246.682 109.592C246.41 109.32 246.274 108.997 246.274 108.623V92.813L242.551 100.157C242.449 100.395 242.211 100.667 241.837 100.973C241.463 101.279 240.987 101.432 240.409 101.432H236.941C236.363 101.432 235.887 101.279 235.513 100.973C235.139 100.667 234.901 100.395 234.799 100.157L231.076 92.813V108.623C231.076 108.997 230.94 109.32 230.668 109.592C230.396 109.864 230.073 110 229.699 110H220.468C220.094 110 219.771 109.864 219.499 109.592C219.227 109.32 219.091 108.997 219.091 108.623V75.677C219.091 75.303 219.227 74.98 219.499 74.708C219.771 74.436 220.094 74.3 220.468 74.3H229.801C230.753 74.3 231.484 74.759 231.994 75.677L238.675 87.917L245.356 75.677ZM300.977 95.261C300.977 100.463 299.243 104.305 295.775 106.787C292.341 109.269 287.751 110.51 282.005 110.51C276.259 110.51 271.652 109.269 268.184 106.787C264.75 104.305 263.033 100.429 263.033 95.159V89.141C263.033 85.673 263.849 82.8 265.481 80.522C267.147 78.21 269.408 76.51 272.264 75.422C275.12 74.334 278.367 73.79 282.005 73.79C285.643 73.79 288.873 74.334 291.695 75.422C294.551 76.51 296.812 78.193 298.478 80.471C300.144 82.749 300.977 85.605 300.977 89.039V95.261ZM276.803 96.23C276.803 97.624 277.262 98.695 278.18 99.443C279.132 100.191 280.407 100.565 282.005 100.565C283.603 100.565 284.861 100.191 285.779 99.443C286.731 98.661 287.207 97.573 287.207 96.179V88.121C287.207 86.727 286.731 85.656 285.779 84.908C284.861 84.126 283.603 83.735 282.005 83.735C280.407 83.735 279.132 84.109 278.18 84.857C277.262 85.605 276.803 86.676 276.803 88.07V96.23ZM344.256 74.3C344.562 74.3 344.817 74.419 345.021 74.657C345.259 74.861 345.378 75.116 345.378 75.422L345.327 75.779L333.597 108.317C333.427 108.793 333.155 109.201 332.781 109.541C332.407 109.847 331.914 110 331.302 110H319.419C318.807 110 318.314 109.847 317.94 109.541C317.566 109.201 317.311 108.844 317.175 108.47L305.343 75.779L305.292 75.422C305.292 75.116 305.394 74.861 305.598 74.657C305.836 74.419 306.108 74.3 306.414 74.3H317.175C317.787 74.3 318.28 74.487 318.654 74.861C319.062 75.201 319.334 75.575 319.47 75.983L325.335 95.516L331.2 75.983C331.336 75.541 331.591 75.15 331.965 74.81C332.339 74.47 332.849 74.3 333.495 74.3H344.256ZM375.601 99.545H384.832C385.206 99.545 385.529 99.681 385.801 99.953C386.073 100.225 386.209 100.548 386.209 100.922V108.623C386.209 108.997 386.073 109.32 385.801 109.592C385.529 109.864 385.206 110 384.832 110H352.498C352.124 110 351.801 109.864 351.529 109.592C351.257 109.32 351.121 108.997 351.121 108.623V100.922C351.121 100.548 351.257 100.225 351.529 99.953C351.801 99.681 352.124 99.545 352.498 99.545H361.831V84.755H352.498C352.124 84.755 351.801 84.619 351.529 84.347C351.257 84.075 351.121 83.752 351.121 83.378V75.677C351.121 75.303 351.257 74.98 351.529 74.708C351.801 74.436 352.124 74.3 352.498 74.3H384.832C385.206 74.3 385.529 74.436 385.801 74.708C386.073 74.98 386.209 75.303 386.209 75.677V83.378C386.209 83.752 386.073 84.075 385.801 84.347C385.529 84.619 385.206 84.755 384.832 84.755H375.601V99.545ZM428.519 100.055C428.893 100.055 429.216 100.191 429.488 100.463C429.76 100.735 429.896 101.058 429.896 101.432V108.623C429.896 108.997 429.76 109.32 429.488 109.592C429.216 109.864 428.893 110 428.519 110H396.287C395.913 110 395.59 109.864 395.318 109.592C395.046 109.32 394.91 108.997 394.91 108.623V75.677C394.91 75.303 395.046 74.98 395.318 74.708C395.59 74.436 395.913 74.3 396.287 74.3H428.009C428.383 74.3 428.706 74.436 428.978 74.708C429.25 74.98 429.386 75.303 429.386 75.677V82.868C429.386 83.242 429.25 83.565 428.978 83.837C428.706 84.109 428.383 84.245 428.009 84.245H408.17V87.458H425.204C425.578 87.458 425.901 87.594 426.173 87.866C426.445 88.138 426.581 88.461 426.581 88.835V95.465C426.581 95.839 426.445 96.162 426.173 96.434C425.901 96.706 425.578 96.842 425.204 96.842H408.17V100.055H428.519ZM458.13 87.254C461.87 87.662 464.862 88.325 467.106 89.243C469.384 90.161 471.033 91.368 472.053 92.864C473.073 94.36 473.583 96.23 473.583 98.474C473.583 100.922 472.784 103.064 471.186 104.9C469.622 106.702 467.446 108.096 464.658 109.082C461.87 110.034 458.691 110.51 455.121 110.51C451.143 110.51 447.777 110.017 445.023 109.031C442.269 108.045 440.212 106.736 438.852 105.104C437.492 103.438 436.812 101.619 436.812 99.647C436.812 99.307 436.914 99.035 437.118 98.831C437.356 98.627 437.645 98.525 437.985 98.525H448.44C449.154 98.525 449.732 98.746 450.174 99.188C450.752 99.732 451.398 100.106 452.112 100.31C452.826 100.48 453.829 100.565 455.121 100.565C458.351 100.565 459.966 100.072 459.966 99.086C459.966 98.678 459.745 98.338 459.303 98.066C458.895 97.76 458.147 97.505 457.059 97.301C456.005 97.063 454.441 96.825 452.367 96.587C447.709 96.043 444.139 94.887 441.657 93.119C439.175 91.317 437.934 88.784 437.934 85.52C437.934 83.208 438.631 81.168 440.025 79.4C441.419 77.632 443.391 76.255 445.941 75.269C448.525 74.283 451.517 73.79 454.917 73.79C458.453 73.79 461.547 74.351 464.199 75.473C466.851 76.561 468.874 77.921 470.268 79.553C471.662 81.185 472.359 82.783 472.359 84.347C472.359 84.687 472.24 84.959 472.002 85.163C471.798 85.367 471.509 85.469 471.135 85.469H460.17C459.592 85.469 459.065 85.265 458.589 84.857C458.215 84.517 457.773 84.245 457.263 84.041C456.753 83.837 455.971 83.735 454.917 83.735C452.639 83.735 451.5 84.211 451.5 85.163C451.5 85.673 451.942 86.081 452.826 86.387C453.71 86.659 455.478 86.948 458.13 87.254Z" fill="black"/>
<defs>
<linearGradient id="paint0_linear" x1="90" y1="7.61719" x2="90" y2="116.617" gradientUnits="userSpaceOnUse">
<stop stop-color="#FF0000"/>
<stop offset="1" stop-color="white" stop-opacity="0"/>
</linearGradient>
</defs>
</svg>
